<?xml version="1.0" standalone="no"?><!DOCTYPE svg PUBLIC "-//W3C//DTD SVG 1.1//EN" "http://www.w3.org/Graphics/SVG/1.1/DTD/svg11.dtd"><svg class="icon" width="200px" height="200.00px" viewBox="0 0 1024 1024" version="1.1" xmlns="http://www.w3.org/2000/svg"><path fill="#ffffff" d="M486.4 332.8V181.76c0-7.68 0-15.36-7.68-20.48-10.24-10.24-25.6-10.24-35.84 0l-256 281.6c-5.12 5.12-7.68 10.24-7.68 17.92 0 7.68 2.56 15.36 7.68 20.48l253.44 279.04c5.12 5.12 12.8 10.24 20.48 10.24 7.68 0 12.8-2.56 17.92-7.68 5.12-5.12 7.68-12.8 7.68-20.48v-151.04c168.96 0 322.56 122.88 353.28 281.6 20.48-46.08 30.72-99.84 30.72-153.6C870.4 504.32 698.88 332.8 486.4 332.8z m25.6 204.8h-76.8v138.24L238.08 460.8 435.2 245.76V384h76.8c181.76 5.12 307.2 212.48 307.2 307.2-56.32-69.12-199.68-153.6-307.2-153.6z" /></svg>